# AST/ASF file generated using VICON BodyLanguage
# -----------------------------------------------
:version 1.10
:name VICON
:units
  mass 1.0
  length 0.45
  angle deg
:documentation
   .ast/.asf automatically generated from VICON data using
   VICON BodyBuilder and BodyLanguage model FoxedUp or BRILLIANT.MOD
:root
   order TX TY TZ RX RY RZ
   axis XYZ
   position 0 0 0  
   orientation 0 0 0 
:bonedata
  begin
     id 1 
     name lhipjoint
     direction 0.547975 -0.797114 0.253638 
     length 2.36201 
     axis 0 0 0  XYZ
  end
  begin
     id 2 
     name lfemur
     direction 0.34202 -0.939693 0  
     length 7.69075  
     axis 0 0 20  XYZ
    dof rx ry rz
    limits (-160.0 20.0)
           (-70.0 70.0)
           (-60.0 70.0)
  end
  begin
     id 3 
     name ltibia
     direction 0.34202 -0.939693 0   
     length 7.91399   
     axis 0 0 20   XYZ
    dof rx
    limits (-10.0 170.0)
  end
  begin
     id 4 
     name lfoot
     direction 0.0705293 -0.193778 0.978507   
     length 2.13618   
     axis -90 7.62852e-016 20   XYZ
    dof rx rz
    limits (-45.0 90.0)
           (-70.0 20.0)
  end
  begin
     id 5 
     name ltoes
     direction 1.53592e-011 -4.21925e-011 1   
     length 1.07518   
     axis -90 7.62852e-016 20   XYZ
    dof rx
    limits (-90.0 20.0)
  end
  begin
     id 6 
     name rhipjoint
     direction -0.57 -0.782963 0.249136   
     length 2.4047  
     axis 0 0 0  XYZ 
  end
  begin
     id 7 
     name rfemur
     direction -0.34202 -0.939693 0   
     length 7.51486   
     axis 0 0 -20   XYZ
    dof rx ry rz
    limits (-160.0 20.0)
           (-70.0 70.0)
           (-70.0 60.0)
  end
  begin
     id 8 
     name rtibia
     direction -0.34202 -0.939693 0   
     length 8.08317   
     axis 0 0 -20   XYZ
    dof rx
    limits (-10.0 170.0)
 end
 begin
     id 9 
     name rfoot
     direction -0.104954 -0.281256 0.953876   
     length 2.30343  
     axis -90 -7.62852e-016 -20   XYZ
    dof rx rz
    limits (-45.0 90.0)
           (-20.0 70.0)
  end
  begin
     id 10 
     name rtoes
     direction -1.53556e-011 -4.21922e-011 1   
     length 1.14803   
     axis -90 -7.62852e-016 -20   XYZ
    dof rx
    limits (-90.0 20.0)
  end
  begin
     id 11 
     name lowerback
     direction -0.0152855 0.99353 -0.11254   
     length 2.05311   
     axis 0 0 0   XYZ
    dof rx ry rz
    limits (-20.0 45.0)
           (-30.0 30.0)
           (-30.0 30.0)
  end
  begin
     id 12 
     name upperback
     direction -0.00157509 0.999443 -0.033332   
     length 2.06353   
     axis 0 0 0   XYZ
    dof rx ry rz
    limits (-20.0 45.0)
           (-30.0 30.0)
           (-30.0 30.0)
  end
  begin
     id 13 
     name thorax
     direction 0.00577788 0.999804 0.0189484   
     length 2.08472   
     axis 0 0 0   XYZ
    dof rx ry rz
    limits (-20.0 45.0)
           (-30.0 30.0)
           (-30.0 30.0)
  end
  begin
     id 14 
     name lowerneck
     direction -1.09301e-005 0.994719 0.10264   
     length 1.76249   
     axis 0 0 0   XYZ
    dof rx ry rz
    limits (-20.0 45.0)
           (-30.0 30.0)
           (-30.0 30.0)
  end
  begin
     id 15 
     name upperneck
     direction 0.0495018 0.988526 -0.142706   
     length 1.77897   
     axis 0 0 0   XYZ
    dof rx ry rz
    limits (-20.0 45.0)
           (-30.0 30.0)
           (-30.0 30.0)
  end
  begin
     id 16
     name head
     direction 0.0142736 0.998114 -0.0597101  
     length 1.78934  
     axis 0 0 0   XYZ
    dof rx ry rz
    limits (-20.0 45.0)
           (-30.0 30.0)
           (-30.0 30.0)
  end
  begin
     id 17 
     name lclavicle
     direction 0.918111 0.396107 -0.0130883  
     length 3.37276  
     axis 0 0 0   XYZ
    dof ry rz
    limits (-20.0 10.0)
           (0.0 20.0)
  end
  begin
     id 18 
     name lhumerus
     direction 1 -4.48975e-011 -3.26108e-027   
     length 5.34298   
     axis 180 -30 -90   XYZ
    dof rx ry rz
    limits (-60.0 90.0)
           (-90.0 90.0)
           (-90.0 90.0)
  end
  begin
     id 19
     name lradius
     direction 1 -4.48964e-011 -8.84413e-028   
     length 3.67262   
     axis 180 -30 -90   XYZ
    dof rx
    limits (-10.0 170.0)
  end
  begin
     id 20
     name lwrist
     direction 1 -4.48991e-011 -1.24264e-027   
     length 1.83631   
     axis -2.17013e-015 90 90   XYZ
    dof ry
    limits (-180.0 0.0)
 end
  begin
     id 21 
     name lhand
     direction 1 -4.48855e-011 -2.48528e-027   
     length 0.599298   
     axis 1.58582e-015 90 90   XYZ
    dof rx rz
    limits (-90.0 90.0)
           (-45.0 45.0)
  end
  begin
     id 22 
     name lfingers
     direction 1 -4.48811e-011 -4.97056e-027   
     length 0.48317   
     axis 3.17164e-015 90 90   XYZ
    dof rx
    limits (0.0 90.0)
  end
  begin
     id 23
     name lthumb
     direction 0.707107 -6.34882e-011 0.707107   
     length 0.693738   
     axis -90 45 2.85299e-015   XYZ
    dof rx rz
    limits (-45.0 45.0)
           (-45.0 45.0)
  end
  begin
     id 24 
     name rclavicle
     direction -0.920511 0.384752 -0.0680135   
     length 3.43787  
     axis 0 0 0   XYZ 
    dof ry rz
    limits (-10.0 20.0)
           (-20.0 0.0)
  end
  begin
     id 25 
     name rhumerus
     direction -0.999976 -0.00330524 0.00603274  
     length 5.5498   
     axis 180 30 90   XYZ
    dof rx ry rz
    limits (-90.0 60.0)
           (-90.0 90.0)
           (-90.0 90.0)
  end
  begin
     id 26 
     name rradius
     direction -1 -4.48967e-011 8.62438e-027   
     length 3.69401   
     axis 180 30 90   XYZ
    dof rx
    limits (-10.0 170.0)
  end
  begin
     id 27 
     name rwrist
     direction -1 -4.4897e-011 9.54866e-027   
     length 1.84701   
     axis -7.69462e-015 -90 -90   XYZ
    dof ry
    limits (-180.0 0.0)
  end
  begin
     id 28
     name rhand
     direction -1 -4.48982e-011 1.90973e-026   
     length 0.638113   
     axis -1.21857e-014 -90 -90   XYZ
    dof rx rz
    limits (-90.0 90.0)
           (-45.0 45.0)
  end
  begin
     id 29
     name rfingers
     direction -1 -4.48936e-011 3.81946e-026   
     length 0.514463   
     axis -2.43714e-014 -90 -90   XYZ
    dof rx
    limits (0.0 90.0)
  end
  begin
     id 30
     name rthumb
     direction -0.707107 -6.34942e-011 0.707107   
     length 0.738669   
     axis -90 -45 -2.85299e-015   XYZ
    dof rx rz
    limits (-45.0 45.0)
           (-45.0 45.0)
  end
:hierarchy
  begin
    root lhipjoint rhipjoint lowerback
    lhipjoint lfemur
    lfemur ltibia
    ltibia lfoot
    lfoot ltoes
    rhipjoint rfemur
    rfemur rtibia
    rtibia rfoot
    rfoot rtoes
    lowerback upperback
    upperback thorax
    thorax lowerneck lclavicle rclavicle
    lowerneck upperneck
    upperneck head
    lclavicle lhumerus
    lhumerus lradius
    lradius lwrist
    lwrist lhand lthumb
    lhand lfingers
    rclavicle rhumerus
    rhumerus rradius
    rradius rwrist
    rwrist rhand rthumb
    rhand rfingers
  end

#!OML:ASF F:\twosubjects\two\Thursday\Session 1\Rory.ASF
:FULLY-SPECIFIED
:DEGREES
153
root 9.39233 17.8702 9.73169 -3.17921 -64.5262 12.2891
lowerback 14.5074 -1.09181 -9.35392
upperback 8.86122 -2.9599 -3.75815
thorax 1.58162 -1.924 1.65375
lowerneck 3.38723 -18.825 -18.6066
upperneck -1.67225 -28.7694 36.411
head 7.78338 -14.8463 11.5488
rclavicle -3.97569e-015 -1.27222e-014
rhumerus -53.7625 -12.4499 -26.1058
rradius 12.4425
rwrist 61.6539
rhand -10.7432 9.79093
rfingers 7.12502
rthumb 15.2678 -19.6256
lclavicle -3.97569e-015 -1.27222e-014
lhumerus -73.6869 -1.2694 92.8699
lradius 27.4783
lwrist -30.2289
lhand -7.93413 24.6749
lfingers 7.12502
lthumb 17.9722 53.8646
rfemur -36.9693 1.10408 11.1173
rtibia 49.3963
rfoot -19.8209 6.09261
rtoes -22.6169
lfemur -21.6672 1.18493 -14.9294
ltibia 38.8789
lfoot -21.134 1.14098
ltoes -1.56968
154
root 9.43709 17.8563 9.69514 -2.57455 -64.3207 11.5425
lowerback 14.8953 -1.27441 -9.27384
upperback 8.95585 -3.23235 -3.64202
thorax 1.50558 -2.06091 1.77701
lowerneck 4.33293 -19.201 -19.1953
upperneck -1.80657 -29.6218 37.2517
head 8.12509 -15.3808 11.7811
rclavicle 4.21423e-014 2.22639e-014
rhumerus -53.6327 -12.4461 -26.1793
rradius 12.574
rwrist 62.1192
rhand -10.9664 9.87869
rfingers 7.12502
rthumb 15.0528 -19.5541
lclavicle 4.21423e-014 2.22639e-014
lhumerus -73.4234 -0.59386 91.9401
lradius 27.4893
lwrist -30.9466
lhand -7.60384 24.8486
lfingers 7.12502
lthumb 18.29 54.0088
rfemur -37.1442 1.18471 10.9332
rtibia 49.8405
rfoot -20.1437 7.77936
rtoes -23.5692
lfemur -22.1722 1.79937 -14.5546
ltibia 39.318
lfoot -20.9796 0.281486
ltoes -0.234797
155
root 9.47764 17.8472 9.63851 -2.36731 -63.7533 11.1871
lowerback 15.508 -1.51954 -9.70867
upperback 8.96299 -3.67605 -3.3547
thorax 1.29094 -2.29721 2.40032
lowerneck 5.32169 -19.5054 -19.995
upperneck -1.83002 -30.3526 37.7479
head 8.42824 -15.8404 11.9534
rclavicle 2.22639e-014 1.11319e-014
rhumerus -53.3652 -12.4911 -25.8176
rradius 12.6149
rwrist 62.8572
rhand -10.8824 10.034
rfingers 7.12502
rthumb 15.1338 -19.3927
lclavicle 2.22639e-014 1.11319e-014
lhumerus -73.2207 0.260631 91.3865
lradius 27.4177
lwrist -31.7041
lhand -7.31312 24.7905
lfingers 7.12502
lthumb 18.5697 53.9241
rfemur -37.1442 1.34123 10.4537
rtibia 50.2415
rfoot -20.7106 9.07027
rtoes -23.6419
lfemur -22.7128 2.15616 -14.3457
ltibia 39.8008
lfoot -20.578 -0.384075
ltoes -1.43964
156
root 9.50745 17.847 9.59764 -2.34122 -63.5866 10.9698
lowerback 15.736 -1.47228 -9.9586
upperback 9.12891 -3.66912 -3.21402
thorax 1.38163 -2.31987 2.68809
lowerneck 6.16853 -19.9693 -20.0278
upperneck -2.17871 -31.0789 38.0051
head 8.45896 -16.2982 11.9058
rclavicle -7.4743e-014 -2.8625e-014
rhumerus -53.3589 -12.2832 -25.9054
rradius 12.5338
rwrist 62.7775
rhand -9.96752 10.2955
rfingers 7.12502
rthumb 16.0149 -19.0625
lclavicle -7.4743e-014 -2.8625e-014
lhumerus -72.9366 0.268073 91.182
lradius 27.4089
lwrist -31.9841
lhand -7.3977 24.7946
lfingers 7.12502
lthumb 18.4883 53.9361
rfemur -36.9395 1.92798 9.86325
rtibia 50.5593
rfoot -21.2138 9.50517
rtoes -22.7308
lfemur -22.8933 2.58086 -14.2222
ltibia 40.13
lfoot -20.194 -0.40629
ltoes -6.07178
157
root 9.54942 17.823 9.54267 -0.878545 -63.0022 9.47448
lowerback 16.0027 -1.59953 -9.06334
upperback 9.37584 -3.74029 -3.23129
thorax 1.4389 -2.33171 2.19184
lowerneck 6.3484 -20.5259 -19.3271
upperneck -2.6286 -31.8054 38.3968
head 8.47531 -16.7123 11.7245
rclavicle 6.59965e-014 4.45278e-014
rhumerus -53.7818 -13.3656 -25.479
rradius 12.1912
rwrist 63.9605
rhand -9.26603 10.4837
rfingers 7.12502
rthumb 16.6903 -18.8187
lclavicle 6.59965e-014 4.45278e-014
lhumerus -72.3862 -0.329461 90.5726
lradius 27.5848
lwrist -31.9879
lhand -7.71165 26.0274
lfingers 7.12502
lthumb 18.1863 55.1972
rfemur -37.0163 2.16716 9.94193
rtibia 50.8683
rfoot -21.1729 8.31666
rtoes -21.1029
lfemur -23.656 2.85985 -13.4454
ltibia 40.3749
lfoot -19.9212 -1.17522
ltoes -4.52599
158
root 9.5823 17.8256 9.51337 -0.698025 -62.8874 9.33161
lowerback 16.0109 -1.60163 -8.79929
upperback 9.44419 -3.70664 -3.23506
thorax 1.48252 -2.30837 2.03619
lowerneck 6.93692 -20.7616 -19.3426
upperneck -2.89643 -32.1596 38.5864
head 8.44606 -16.9641 11.7453
rclavicle 7.71285e-014 -1.74931e-014
rhumerus -53.9814 -13.3829 -25.4204
rradius 11.9803
rwrist 64.1747
rhand -9.42288 10.3908
rfingers 7.12502
rthumb 16.5393 -18.9244
lclavicle 7.71285e-014 -1.74931e-014
lhumerus -72.2361 -0.254822 89.9843
lradius 27.7987
lwrist -32.1914
lhand -7.84333 26.3206
lfingers 7.12502
lthumb 18.0596 55.5022
rfemur -36.8947 2.35741 9.32357
rtibia 51.114
rfoot -20.9321 6.96866
rtoes -19.7051
lfemur -23.9238 2.88372 -13.3622
ltibia 40.4427
lfoot -19.9541 -1.60133
ltoes -0.22875
159
root 9.6071 17.8347 9.47273 -0.837996 -62.7722 9.46921
lowerback 16.0075 -1.53354 -8.87642
upperback 9.56496 -3.62311 -3.15905
thorax 1.61896 -2.28264 2.14161
lowerneck 7.35385 -20.9949 -19.4513
upperneck -3.04999 -32.4879 38.6083
head 8.44888 -17.1663 11.7025
rclavicle 7.55382e-014 6.04305e-014
rhumerus -53.8805 -11.9435 -26.9834
rradius 11.9903
rwrist 61.9644
rhand -9.93032 9.59141
rfingers 7.12502
rthumb 16.0507 -19.7638
lclavicle 7.55382e-014 6.04305e-014
lhumerus -72.0615 -0.266211 89.747
lradius 28.1036
lwrist -32.2618
lhand -7.598 26.1014
lfingers 7.12502
lthumb 18.2956 55.261
rfemur -36.6424 2.7321 8.56316
rtibia 51.3407
rfoot -21.0832 4.53528
rtoes -22.9068
lfemur -24.0404 2.65134 -13.3595
ltibia 40.4388
lfoot -19.9641 -1.58402
ltoes 0.588239
160
root 9.62353 17.8327 9.42044 -0.866127 -62.6575 9.46506
lowerback 15.9643 -1.45471 -9.04247
upperback 9.75207 -3.53169 -3.09405
thorax 1.85407 -2.26392 2.27803
lowerneck 7.53236 -21.2174 -19.1975
upperneck -3.2679 -32.7079 38.5762
head 8.35526 -17.3026 11.605
rclavicle -1.59028e-014 5.1684e-014
rhumerus -53.9765 -11.4392 -27.6865
rradius 12.0335
rwrist 61.1023
rhand -10.4281 8.96097
rfingers 7.12502
rthumb 15.5714 -20.4322
lclavicle -1.59028e-014 5.1684e-014
lhumerus -71.8366 -0.47107 89.7531
lradius 28.4097
lwrist -31.8835
lhand -8.01268 27.1233
lfingers 7.12502
lthumb 17.8966 56.3198
rfemur -36.3254 3.35718 7.8569
rtibia 51.5308
rfoot -21.2334 1.82411
rtoes -24.011
lfemur -24.1006 2.43721 -13.22
ltibia 40.3455
lfoot -20.0214 -1.62658
ltoes 1.23304
161
root 9.64081 17.8338 9.36796 -0.157367 -62.7031 8.57212
lowerback 16.0072 -1.3902 -8.84975
upperback 9.86104 -3.42143 -2.89434
thorax 1.93635 -2.21431 2.36592
lowerneck 7.64203 -21.3858 -19.2227
upperneck -3.24067 -32.9381 38.47
head 8.38899 -17.4108 11.5046
rclavicle -4.6118e-014 4.37326e-014
rhumerus -54.3162 -12.2326 -26.6672
rradius 12.0195
rwrist 62.4362
rhand -10.5924 8.99863
rfingers 7.12502
rthumb 15.4131 -20.4068
lclavicle -4.6118e-014 4.37326e-014
lhumerus -71.6732 -0.38234 89.633
lradius 28.4272
lwrist -31.5479
lhand -8.76598 27.5242
lfingers 7.12502
lthumb 17.1717 56.7854
rfemur -35.9974 4.17028 7.58456
rtibia 51.6814
rfoot -21.084 -0.381501
rtoes -20.2083
lfemur -24.069 2.38486 -12.6064
ltibia 40.2638
lfoot -19.9685 -1.62889
ltoes 1.10561
162
root 9.6613 17.8316 9.32425 0.647204 -62.2873 7.32913
lowerback 16.3557 -1.45501 -7.97694
upperback 10.0174 -3.42467 -2.79414
thorax 1.86082 -2.18375 2.00253
lowerneck 7.696 -21.6261 -19.3096
upperneck -3.10046 -33.3366 38.4542
head 8.55607 -17.5855 11.3766
rclavicle 8.18993e-014 1.35174e-014
rhumerus -55.098 -13.2035 -25.5197
rradius 11.9605
rwrist 63.7704
rhand -10.2211 8.60938
rfingers 7.12502
rthumb 15.7708 -20.7681
lclavicle 8.18993e-014 1.35174e-014
lhumerus -71.4061 -0.426718 89.1576
lradius 28.1767
lwrist -31.5125
lhand -8.85136 27.0143
lfingers 7.12502
lthumb 17.0895 56.2827
rfemur -35.3108 4.56621 7.52621
rtibia 51.8104
rfoot -20.4164 -2.91861
rtoes -17.5146
lfemur -23.9415 2.12405 -11.849
ltibia 40.1984
lfoot -19.6747 -1.60676
ltoes -1.71643
163
root 9.68198 17.8285 9.28122 0.710466 -60.9895 6.79938
lowerback 16.899 -1.8855 -7.62474
upperback 10.2501 -3.9814 -2.57358
thorax 1.86989 -2.46094 2.13163
lowerneck 7.5148 -21.6318 -19.2659
upperneck -3.02501 -33.273 38.2128
head 8.51726 -17.5191 11.2857
rclavicle -7.87187e-014 -9.54166e-015
rhumerus -55.0851 -13.4887 -25.0395
rradius 11.7711
rwrist 64.4051
rhand -9.58532 6.78974
rfingers 7.12502
rthumb 16.3829 -22.5384
lclavicle -7.87187e-014 -9.54166e-015
lhumerus -71.0548 0.166242 88.7155
lradius 28.007
lwrist -31.537
lhand -8.86971 26.9482
lfingers 7.12502
lthumb 17.0719 56.2181
rfemur -34.1412 4.11332 7.14209
rtibia 51.937
rfoot -19.5192 -5.32626
rtoes -15.4839
lfemur -23.928 1.23672 -11.4773
ltibia 40.0883
lfoot -19.263 -1.912
ltoes -3.73596
164
root 9.70094 17.8322 9.23014 0.58545 -60.0503 6.60921
lowerback 17.3899 -2.16911 -7.48752
upperback 10.3425 -4.37233 -2.43437
thorax 1.7523 -2.65341 2.28014
lowerneck 7.42658 -21.542 -19.2088
upperneck -2.89211 -33.1035 37.9719
head 8.44843 -17.4108 11.2482
rclavicle 3.02153e-014 8.74653e-015
rhumerus -55.1008 -13.4595 -24.8744
rradius 11.6475
rwrist 64.5865
rhand -11.2058 8.71085
rfingers 7.12502
rthumb 14.8223 -20.739
lclavicle 3.02153e-014 8.74653e-015
lhumerus -70.9236 0.681947 88.2048
lradius 27.9218
lwrist -31.9899
lhand -8.80489 26.6784
lfingers 7.12502
lthumb 17.1342 55.9429
rfemur -33.1837 3.8207 6.60385
rtibia 52.0671
rfoot -18.7931 -7.3359
rtoes -12.433
lfemur -23.9135 0.472268 -11.2477
ltibia 39.9205
lfoot -18.9104 -2.21945
ltoes -4.47315
165
root 9.71272 17.8333 9.17321 0.658205 -59.7137 6.41288
lowerback 17.5713 -2.186 -7.4776
upperback 10.3257 -4.40587 -2.3028
thorax 1.65416 -2.66923 2.43016
lowerneck 7.42117 -21.435 -19.3138
upperneck -2.54476 -33.0153 37.7663
head 8.50084 -17.3325 11.2288
rclavicle -6.36111e-015 2.06736e-014
rhumerus -55.3297 -13.2689 -24.7986
rradius 11.6466
rwrist 64.3993
rhand -11.2981 9.75552
rfingers 7.12502
rthumb 14.7333 -19.7009
lclavicle -6.36111e-015 2.06736e-014
lhumerus -70.8727 1.1024 87.6644
lradius 27.693
lwrist -32.6239
lhand -8.24515 25.5199
lfingers 7.12502
lthumb 17.6729 54.7367
rfemur -32.6782 4.16782 6.06623
rtibia 52.2069
rfoot -17.7885 -9.32406
rtoes -9.98264
lfemur -23.9014 0.073746 -10.9636
ltibia 39.6764
lfoot -18.6518 -2.20105
ltoes -5.52418
166
root 9.71693 17.8286 9.11063 0.524889 -59.4492 6.58438
lowerback 17.5061 -2.17613 -7.71214
upperback 10.3149 -4.41717 -2.26782
thorax 1.70294 -2.6867 2.59373
lowerneck 7.40862 -21.3065 -19.2034
upperneck -2.31946 -32.8237 37.5151
head 8.43088 -17.2169 11.2038
rclavicle -6.52014e-014 -1.90833e-014
rhumerus -55.7606 -13.7327 -24.0469
rradius 11.6532
rwrist 65.3418
rhand -11.3989 10.0561
rfingers 7.12502
rthumb 14.6362 -19.4074
lclavicle -6.52014e-014 -1.90833e-014
lhumerus -71.0071 1.01155 88.2053
lradius 28.0426
lwrist -31.6588
lhand -7.33068 28.0166
lfingers 7.12502
lthumb 18.5528 57.1519
rfemur -32.2284 4.58768 5.33682
rtibia 52.3004
rfoot -16.7038 -11.1124
rtoes -9.29267
lfemur -23.9897 -0.217247 -10.8764
ltibia 39.3838
lfoot -18.4063 -2.0222
ltoes -6.33186
167
root 9.71511 17.8275 9.0501 -0.014468 -59.3018 7.26083
lowerback 17.3399 -2.08986 -8.20211
upperback 10.3062 -4.35723 -2.30472
thorax 1.81741 -2.68105 2.80546
lowerneck 7.43771 -21.2782 -18.7324
upperneck -2.44719 -32.5998 37.1491
head 8.132 -17.1133 11.1097
rclavicle 1.98785e-014 -3.33958e-014
rhumerus -56.4865 -14.7061 -22.7309
rradius 11.7628
rwrist 67.1112
rhand -12.0231 9.66115
rfingers 7.12502
rthumb 14.0347 -19.845
lclavicle 1.98785e-014 -3.33958e-014
lhumerus -71.2426 0.760844 89.02
lradius 28.5164
lwrist -30.2953
lhand -6.34517 30.3673
lfingers 7.12502
lthumb 19.5005 59.4094
rfemur -31.7124 4.80094 4.35458
rtibia 52.3272
rfoot -16.4222 -12.4665
rtoes -8.06755
lfemur -24.0562 -0.44292 -11.0854
ltibia 39.0853
lfoot -18.1892 -1.95342
ltoes -5.21954
